HIERARCHY
ROOT Hips
{
	OFFSET -0.179506 -22.333345 2.821913
	CHANNELS 6 Xposition Yposition Zposition Zrotation Yrotation Xrotation 
	JOINT LeftUpLeg
	{
		OFFSET 6.951974 -9.140623 -0.681533
		CHANNELS 3 Zrotation Yrotation Xrotation
		JOINT LeftLeg
		{
			OFFSET 3.427654 -37.519855 -0.449580
			CHANNELS 3 Zrotation Yrotation Xrotation
			JOINT LeftFoot
			{
				OFFSET -1.359570 -39.796059 -4.369333
				CHANNELS 3 Zrotation Yrotation Xrotation
				JOINT LeftToe
				{
					OFFSET 2.635814 -5.579078 11.928840
					CHANNELS 3 Zrotation Yrotation Xrotation
					End Site
					{
						OFFSET 0.000000 0.000000 0.000000
					}
				}
			}
		}
	}
	JOINT RightUpLeg
	{
		OFFSET -6.767048 -9.052170 -0.431982
		CHANNELS 3 Zrotation Yrotation Xrotation
		JOINT RightLeg
		{
			OFFSET -3.829005 -38.256897 -0.885003
			CHANNELS 3 Zrotation Yrotation Xrotation
			JOINT RightFoot
			{
				OFFSET 1.577377 -39.841461 -4.231180
				CHANNELS 3 Zrotation Yrotation Xrotation
				JOINT RightToe
				{
					OFFSET -2.537174 -4.814398 12.334795
					CHANNELS 3 Zrotation Yrotation Xrotation
					End Site
					{
						OFFSET 0.000000 0.000000 0.000000
					}
				}
			}
		}
	}
	JOINT Spine
	{
		OFFSET -0.253288 10.896323 -2.669631
		CHANNELS 3 Zrotation Yrotation Xrotation
		JOINT Spine1
		{
			OFFSET 0.548704 13.518043 0.109247
			CHANNELS 3 Zrotation Yrotation Xrotation
			JOINT Spine2
			{
				OFFSET 0.145701 5.292222 2.542457
				CHANNELS 3 Zrotation Yrotation Xrotation
				JOINT Neck
				{
					OFFSET -0.277840 21.387037 -4.285703
					CHANNELS 3 Zrotation Yrotation Xrotation
					JOINT Head
					{
						OFFSET 0.515184 6.496960 5.134897
						CHANNELS 3 Zrotation Yrotation Xrotation
						End Site
						{
							OFFSET 0.000000 0.000000 0.000000
						}
					}
				}
				JOINT LeftShoulder
				{
					OFFSET 7.884473 12.174932 -3.408961
					CHANNELS 3 Zrotation Yrotation Xrotation
					JOINT LeftArm
					{
						OFFSET 9.097692 3.046888 -0.886815
						CHANNELS 3 Zrotation Yrotation Xrotation
						JOINT LeftForeArm
						{
							OFFSET 25.961220 -1.277207 -2.745643
							CHANNELS 3 Zrotation Yrotation Xrotation
							JOINT LeftHand
							{
								OFFSET 24.923361 0.898606 -0.117091
								CHANNELS 3 Zrotation Yrotation Xrotation
								End Site
								{
									OFFSET 0.000000 0.000000 0.000000
								}
							}
						}
					}
				}
				JOINT RightShoulder
				{
					OFFSET -8.175920 11.883285 -3.861528
					CHANNELS 3 Zrotation Yrotation Xrotation
					JOINT RightArm
					{
						OFFSET -9.601238 3.255117 -0.914307
						CHANNELS 3 Zrotation Yrotation Xrotation
						JOINT RightForeArm
						{
							OFFSET -25.374195 -1.332924 -2.140099
							CHANNELS 3 Zrotation Yrotation Xrotation
							JOINT RightHand
							{
								OFFSET -25.529810 0.777228 -0.555919
								CHANNELS 3 Zrotation Yrotation Xrotation
								End Site
								{
									OFFSET 0.000000 0.000000 0.000000
								}
							}
						}
					}
				}
			}
		}
	}
}
MOTION
Frames: 6
Frame Time: 0.033333
-91.775497 64.837212 93.739006 -27.208483 44.081177 126.462147 36.124248 28.956249 -49.993833 0.004108 11.281811 35.477433 2.025260 9.448526 -21.698731 nan nan nan -30.486430 -7.900801 6.723456 -6.199408 0.820002 69.953427 6.978261 -6.677678 -42.651795 nan nan nan -4.780387 13.913703 14.949839 11.154594 -0.599078 -0.924973 7.228282 4.031599 -2.779423 30.043809 -9.613879 -0.886640 27.896589 -33.147666 -25.537851 -10.778087 3.504431 5.081913 -54.357019 -16.801161 18.842547 -23.735560 -74.582763 39.494760 33.920582 -27.967352 -44.085015 17.924173 3.144128 8.575868 58.534512 -12.135791 4.576402 -30.119923 68.820634 -26.506116 -33.555293 4.285119 -63.844968 
-91.706894 64.631119 93.775063 -28.225016 43.986922 124.878346 36.374789 28.680084 -48.606573 -0.444852 11.113477 35.836753 1.923266 10.026808 -22.241678 nan nan nan -29.913498 -7.880787 5.048856 -6.138530 0.587695 73.723832 6.902868 -7.001213 -42.732804 nan nan nan -4.821635 12.894885 15.485149 11.494898 -1.241306 -0.935492 7.313288 3.552712 -2.562137 29.489554 -9.901357 0.320409 27.927041 -32.405281 -24.222298 -11.690700 2.154896 5.251585 -54.717036 -18.849672 19.412392 -26.337448 -75.090384 42.226332 34.050335 -27.269186 -43.232702 18.144508 2.506313 8.224582 58.859719 -13.381650 3.705780 -31.466039 69.750749 -28.049231 -32.936356 4.195533 -61.559018 
-91.679268 64.444908 93.804108 -29.384301 43.978647 123.290862 36.740318 28.575724 -47.198068 -0.909395 11.095709 36.255359 1.763835 10.519019 -22.845872 nan nan nan -29.181077 -7.743926 3.276881 -6.015366 0.247564 77.464387 6.596091 -7.144021 -42.661677 nan nan nan -4.923773 11.860114 15.645942 11.858152 -1.861044 -0.493845 7.355824 3.119582 -2.664773 28.928395 -10.057491 1.965989 28.010582 -31.754287 -23.020769 -12.551599 1.082655 5.311568 -54.922865 -20.940195 20.005305 -29.463794 -75.356389 45.318050 31.856856 -28.492831 -43.053902 18.206512 1.618255 7.891069 59.255587 -14.548198 2.754726 -33.073305 70.430985 -29.207125 -31.414913 4.525926 -59.558493 
-91.582954 64.297264 93.821907 -30.689457 43.768502 121.874049 36.909259 28.224063 -46.022458 -1.411012 11.071513 36.557977 1.694780 11.383378 -23.275279 nan nan nan -28.698592 -7.805970 1.086749 -5.963524 -0.487030 81.310253 6.217512 -7.524919 -42.267581 nan nan nan -5.209605 10.601207 15.810664 12.128301 -2.582295 -0.437332 7.374153 2.744166 -2.577562 28.159454 -10.407622 3.620594 27.836151 -30.810760 -21.673519 -12.966055 0.220007 5.530750 -55.477871 -23.114096 20.625865 -32.077392 -75.938762 47.682937 32.063370 -28.109116 -41.896209 18.053572 0.583330 7.824550 59.448895 -15.440632 1.605161 -33.816340 71.422804 -29.388503 -30.523111 4.333429 -57.138893 
-91.477867 64.142693 93.843254 -32.157671 43.603317 120.351642 37.029485 27.936531 -44.725079 -1.747212 11.020714 36.742104 1.683716 12.097277 -23.746993 nan nan nan -28.166412 -7.846931 -1.226934 -6.043913 -1.328004 85.053463 5.838837 -7.798653 -42.007643 nan nan nan -5.499542 9.227910 16.043099 12.364848 -3.252561 -0.621250 7.397220 2.396064 -2.179904 27.306844 -10.534384 4.955435 27.445354 -30.099066 -20.320783 -13.011054 -0.603057 5.641292 -56.406628 -25.177874 21.365145 -34.234593 -76.647242 49.531868 32.912193 -27.572772 -40.877472 17.701673 -0.268564 7.834608 59.492043 -16.416218 0.696531 -34.791512 72.384659 -29.248377 -30.331959 4.544651 -54.778076 
-91.352257 63.994274 93.887726 -33.867488 43.515952 118.762570 37.100685 27.820982 -43.335581 -1.820989 11.152018 36.828769 1.569568 12.529239 -24.221012 nan nan nan -27.542046 -7.841429 -3.770518 -6.342954 -2.326602 88.671033 5.820971 -7.715020 -41.828009 nan nan nan -5.578130 8.048327 16.321674 12.418788 -3.732565 -1.050517 7.330323 1.887090 -1.791069 26.618579 -10.323536 6.157369 27.034358 -29.701826 -19.124607 -12.841651 -1.367003 5.526421 -57.559170 -27.143606 22.118228 -35.102171 -77.294635 50.501923 31.941109 -28.409761 -40.385801 17.225846 -1.295232 7.584779 60.047794 -17.420413 -0.743219 -37.014301 72.929326 -29.880482 -29.112235 6.058894 -52.040297 
